<mxfile host="65bd71144e">
    <diagram id="__efp2elD7MMZYLN7wHg" name="Page-1">
        <mxGraphModel dx="1014" dy="227" grid="1" gridSize="10" guides="1" tooltips="1" connect="1" arrows="1" fold="1" page="1" pageScale="1" pageWidth="850" pageHeight="1100" math="0" shadow="0">
            <root>
                <mxCell id="0"/>
                <mxCell id="1" parent="0"/>
                <mxCell id="112" value="" style="shape=ext;double=1;rounded=0;whiteSpace=wrap;html=1;strokeWidth=2;strokeColor=#000000;fontStyle=1;fontSize=21;" parent="1" vertex="1">
                    <mxGeometry x="20" y="1095" width="815" height="60" as="geometry"/>
                </mxCell>
                <mxCell id="32" value="" style="shape=parallelogram;perimeter=parallelogramPerimeter;whiteSpace=wrap;html=1;fixedSize=1;strokeWidth=2;fontSize=21;strokeColor=#000000;fontStyle=1" parent="1" vertex="1">
                    <mxGeometry x="120" y="2080" width="640" height="40" as="geometry"/>
                </mxCell>
                <mxCell id="6" value="" style="shape=ext;double=1;rounded=0;whiteSpace=wrap;html=1;strokeWidth=2;strokeColor=#000000;fontStyle=1;fontSize=21;" parent="1" vertex="1">
                    <mxGeometry x="40" y="1900" width="800" height="150" as="geometry"/>
                </mxCell>
                <mxCell id="7" value="" style="shape=ext;double=1;rounded=0;whiteSpace=wrap;html=1;strokeWidth=2;strokeColor=#000000;fontStyle=1;fontSize=21;" parent="1" vertex="1">
                    <mxGeometry x="40" y="1660" width="800" height="120" as="geometry"/>
                </mxCell>
                <mxCell id="8" value="" style="shape=ext;double=1;rounded=0;whiteSpace=wrap;html=1;strokeWidth=2;strokeColor=#000000;fontStyle=1;fontSize=21;" parent="1" vertex="1">
                    <mxGeometry x="45" y="1440" width="790" height="100" as="geometry"/>
                </mxCell>
                <mxCell id="9" value="" style="shape=ext;double=1;rounded=0;whiteSpace=wrap;html=1;strokeWidth=2;strokeColor=#000000;fontStyle=1;fontSize=21;" parent="1" vertex="1">
                    <mxGeometry x="27.5" y="1210" width="810" height="100" as="geometry"/>
                </mxCell>
                <mxCell id="24" style="edgeStyle=none;html=1;exitX=0.5;exitY=0;exitDx=0;exitDy=0;entryX=0.5;entryY=1;entryDx=0;entryDy=0;fontSize=21;fontColor=#B8B6B6;strokeColor=#000000;strokeWidth=2;fontStyle=1" parent="1" source="19" edge="1">
                    <mxGeometry relative="1" as="geometry">
                        <mxPoint x="440" y="2120" as="targetPoint"/>
                    </mxGeometry>
                </mxCell>
                <mxCell id="19" value="" style="shape=ext;double=1;rounded=0;whiteSpace=wrap;html=1;strokeWidth=2;strokeColor=#000000;fontStyle=1;fontSize=21;" parent="1" vertex="1">
                    <mxGeometry x="40" y="2160" width="800" height="120" as="geometry"/>
                </mxCell>
                <mxCell id="20" value="" style="shape=cylinder3;whiteSpace=wrap;html=1;boundedLbl=1;backgroundOutline=1;size=15;strokeWidth=2;strokeColor=#000000;fontStyle=1;fontSize=21;" parent="1" vertex="1">
                    <mxGeometry x="390" y="2170" width="100" height="100" as="geometry"/>
                </mxCell>
                <mxCell id="21" value="&lt;span style=&quot;font-size: 21px;&quot;&gt;&lt;font color=&quot;#000000&quot; style=&quot;font-size: 21px;&quot;&gt;Raw Data&lt;/font&gt;&lt;/span&gt;" style="text;html=1;align=center;verticalAlign=middle;whiteSpace=wrap;rounded=0;strokeWidth=2;strokeColor=none;fontStyle=1;fontSize=21;" parent="1" vertex="1">
                    <mxGeometry x="70" y="2170" width="130" height="30" as="geometry"/>
                </mxCell>
                <mxCell id="25" style="edgeStyle=none;html=1;exitX=0.5;exitY=0;exitDx=0;exitDy=0;fontSize=21;fontColor=#B8B6B6;strokeColor=#000000;strokeWidth=2;fontStyle=1;entryX=0.5;entryY=1;entryDx=0;entryDy=0;" parent="1" target="6" edge="1">
                    <mxGeometry relative="1" as="geometry">
                        <mxPoint x="440" y="2060" as="targetPoint"/>
                        <mxPoint x="440" y="2080" as="sourcePoint"/>
                    </mxGeometry>
                </mxCell>
                <mxCell id="26" value="&lt;span style=&quot;font-size: 21px;&quot;&gt;&lt;font color=&quot;#000000&quot; style=&quot;font-size: 21px;&quot;&gt;Event logs Collection Stage&lt;/font&gt;&lt;/span&gt;" style="text;html=1;align=center;verticalAlign=middle;whiteSpace=wrap;rounded=0;strokeWidth=2;strokeColor=none;fontStyle=1;fontSize=21;" parent="1" vertex="1">
                    <mxGeometry x="315" y="2085" width="290" height="30" as="geometry"/>
                </mxCell>
                <mxCell id="27" value="&lt;span style=&quot;font-size: 21px;&quot;&gt;&lt;font color=&quot;#000000&quot; style=&quot;font-size: 21px;&quot;&gt;Patients&lt;/font&gt;&lt;/span&gt;" style="text;html=1;align=center;verticalAlign=middle;whiteSpace=wrap;rounded=0;strokeWidth=2;strokeColor=none;fontStyle=1;fontSize=21;" parent="1" vertex="1">
                    <mxGeometry x="70" y="2025" width="115" height="20" as="geometry"/>
                </mxCell>
                <mxCell id="28" value="&lt;span style=&quot;font-size: 21px;&quot;&gt;&lt;font color=&quot;#000000&quot; style=&quot;font-size: 21px;&quot;&gt;OutputEvent&lt;/font&gt;&lt;/span&gt;" style="text;html=1;align=center;verticalAlign=middle;whiteSpace=wrap;rounded=0;strokeWidth=2;strokeColor=none;fontStyle=1;fontSize=21;" parent="1" vertex="1">
                    <mxGeometry x="245" y="2020" width="130" height="30" as="geometry"/>
                </mxCell>
                <mxCell id="29" value="&lt;span style=&quot;font-size: 21px;&quot;&gt;&lt;font color=&quot;#050505&quot; style=&quot;font-size: 21px;&quot;&gt;LabEvent&lt;/font&gt;&lt;/span&gt;" style="text;html=1;align=center;verticalAlign=middle;whiteSpace=wrap;rounded=0;strokeWidth=2;strokeColor=none;fontStyle=1;fontSize=21;" parent="1" vertex="1">
                    <mxGeometry x="425" y="2020" width="130" height="30" as="geometry"/>
                </mxCell>
                <mxCell id="30" value="&lt;span style=&quot;font-size: 21px;&quot;&gt;&lt;font color=&quot;#030303&quot; style=&quot;font-size: 21px;&quot;&gt;InputEvent_MV&lt;/font&gt;&lt;/span&gt;" style="text;html=1;align=center;verticalAlign=middle;whiteSpace=wrap;rounded=0;strokeWidth=2;strokeColor=none;fontStyle=1;fontSize=21;" parent="1" vertex="1">
                    <mxGeometry x="640" y="2020" width="130" height="30" as="geometry"/>
                </mxCell>
                <mxCell id="34" value="&lt;span style=&quot;font-size: 21px;&quot;&gt;&lt;font color=&quot;#000000&quot; style=&quot;font-size: 21px;&quot;&gt;MIMIC III&lt;/font&gt;&lt;/span&gt;" style="text;html=1;align=center;verticalAlign=middle;whiteSpace=wrap;rounded=0;strokeWidth=2;strokeColor=none;fontStyle=1;fontSize=21;" parent="1" vertex="1">
                    <mxGeometry x="375" y="2220" width="130" height="30" as="geometry"/>
                </mxCell>
                <mxCell id="40" value="" style="edgeStyle=none;html=1;fontSize=21;fontColor=#B8B6B6;strokeColor=#000000;strokeWidth=2;fontStyle=1" parent="1" source="37" target="7" edge="1">
                    <mxGeometry relative="1" as="geometry"/>
                </mxCell>
                <mxCell id="37" value="" style="shape=parallelogram;perimeter=parallelogramPerimeter;whiteSpace=wrap;html=1;fixedSize=1;strokeWidth=2;fontSize=21;strokeColor=#000000;fontStyle=1" parent="1" vertex="1">
                    <mxGeometry x="120" y="1820" width="640" height="40" as="geometry"/>
                </mxCell>
                <mxCell id="123" value="" style="edgeStyle=none;html=1;strokeColor=#000000;strokeWidth=2;fontSize=21;" parent="1" target="7" edge="1">
                    <mxGeometry relative="1" as="geometry">
                        <mxPoint x="440" y="1820" as="sourcePoint"/>
                    </mxGeometry>
                </mxCell>
                <mxCell id="41" value="traces_10006" style="shape=table;startSize=30;container=1;collapsible=0;childLayout=tableLayout;fixedRows=1;rowLines=0;fontStyle=1;strokeWidth=2;fontSize=21;strokeColor=#000000;fontColor=#0a0a0a;" parent="1" vertex="1">
                    <mxGeometry x="90" y="1675" width="140" height="90" as="geometry"/>
                </mxCell>
                <mxCell id="42" value="" style="shape=tableRow;horizontal=0;startSize=0;swimlaneHead=0;swimlaneBody=0;top=0;left=0;bottom=0;right=0;collapsible=0;dropTarget=0;points=[[0,0.5],[1,0.5]];portConstraint=eastwest;strokeWidth=2;fontSize=21;strokeColor=#000000;fontStyle=1" parent="41" vertex="1">
                    <mxGeometry y="30" width="140" height="30" as="geometry"/>
                </mxCell>
                <mxCell id="43" value="&lt;font style=&quot;font-size: 21px;&quot; color=&quot;#000000&quot;&gt;e1&lt;/font&gt;" style="shape=partialRectangle;html=1;whiteSpace=wrap;connectable=0;top=0;left=0;bottom=0;right=0;overflow=hidden;pointerEvents=1;strokeWidth=2;fontSize=21;strokeColor=#000000;fontStyle=1" parent="42" vertex="1">
                    <mxGeometry width="31" height="30" as="geometry">
                        <mxRectangle width="31" height="30" as="alternateBounds"/>
                    </mxGeometry>
                </mxCell>
                <mxCell id="44" value="&lt;font color=&quot;#030202&quot; style=&quot;font-size: 21px;&quot;&gt;----&lt;/font&gt;" style="shape=partialRectangle;html=1;whiteSpace=wrap;connectable=0;top=0;left=0;bottom=0;right=0;align=left;spacingLeft=6;overflow=hidden;strokeWidth=2;fontSize=21;strokeColor=#000000;fontStyle=1" parent="42" vertex="1">
                    <mxGeometry x="31" width="109" height="30" as="geometry">
                        <mxRectangle width="109" height="30" as="alternateBounds"/>
                    </mxGeometry>
                </mxCell>
                <mxCell id="45" value="" style="shape=tableRow;horizontal=0;startSize=0;swimlaneHead=0;swimlaneBody=0;top=0;left=0;bottom=0;right=0;collapsible=0;dropTarget=0;points=[[0,0.5],[1,0.5]];portConstraint=eastwest;strokeWidth=2;fontSize=21;strokeColor=#000000;fontStyle=1" parent="41" vertex="1">
                    <mxGeometry y="60" width="140" height="30" as="geometry"/>
                </mxCell>
                <mxCell id="46" value="&lt;font style=&quot;font-size: 21px;&quot; color=&quot;#060505&quot;&gt;e2&lt;/font&gt;" style="shape=partialRectangle;html=1;whiteSpace=wrap;connectable=0;top=0;left=0;bottom=0;right=0;overflow=hidden;strokeWidth=2;fontSize=21;strokeColor=#000000;fontStyle=1" parent="45" vertex="1">
                    <mxGeometry width="31" height="30" as="geometry">
                        <mxRectangle width="31" height="30" as="alternateBounds"/>
                    </mxGeometry>
                </mxCell>
                <mxCell id="47" value="&lt;font style=&quot;font-size: 21px;&quot; color=&quot;#000000&quot;&gt;---&lt;/font&gt;" style="shape=partialRectangle;html=1;whiteSpace=wrap;connectable=0;top=0;left=0;bottom=0;right=0;align=left;spacingLeft=6;overflow=hidden;strokeWidth=2;fontSize=21;strokeColor=#000000;fontStyle=1" parent="45" vertex="1">
                    <mxGeometry x="31" width="109" height="30" as="geometry">
                        <mxRectangle width="109" height="30" as="alternateBounds"/>
                    </mxGeometry>
                </mxCell>
                <mxCell id="51" value="traces_10076" style="shape=table;startSize=30;container=1;collapsible=0;childLayout=tableLayout;fixedRows=1;rowLines=0;fontStyle=1;strokeWidth=2;fontSize=21;strokeColor=#000000;fontColor=#030303;" parent="1" vertex="1">
                    <mxGeometry x="285" y="1675" width="140" height="90" as="geometry"/>
                </mxCell>
                <mxCell id="52" value="" style="shape=tableRow;horizontal=0;startSize=0;swimlaneHead=0;swimlaneBody=0;top=0;left=0;bottom=0;right=0;collapsible=0;dropTarget=0;points=[[0,0.5],[1,0.5]];portConstraint=eastwest;strokeWidth=2;fontSize=21;strokeColor=#000000;fontStyle=1" parent="51" vertex="1">
                    <mxGeometry y="30" width="140" height="30" as="geometry"/>
                </mxCell>
                <mxCell id="53" value="&lt;font style=&quot;font-size: 21px;&quot; color=&quot;#000000&quot;&gt;e1&lt;/font&gt;" style="shape=partialRectangle;html=1;whiteSpace=wrap;connectable=0;top=0;left=0;bottom=0;right=0;overflow=hidden;pointerEvents=1;strokeWidth=2;fontSize=21;strokeColor=#000000;fontStyle=1" parent="52" vertex="1">
                    <mxGeometry width="31" height="30" as="geometry">
                        <mxRectangle width="31" height="30" as="alternateBounds"/>
                    </mxGeometry>
                </mxCell>
                <mxCell id="54" value="&lt;font style=&quot;font-size: 21px;&quot; color=&quot;#050505&quot;&gt;----&lt;/font&gt;" style="shape=partialRectangle;html=1;whiteSpace=wrap;connectable=0;top=0;left=0;bottom=0;right=0;align=left;spacingLeft=6;overflow=hidden;strokeWidth=2;fontSize=21;strokeColor=#000000;fontStyle=1" parent="52" vertex="1">
                    <mxGeometry x="31" width="109" height="30" as="geometry">
                        <mxRectangle width="109" height="30" as="alternateBounds"/>
                    </mxGeometry>
                </mxCell>
                <mxCell id="55" value="" style="shape=tableRow;horizontal=0;startSize=0;swimlaneHead=0;swimlaneBody=0;top=0;left=0;bottom=0;right=0;collapsible=0;dropTarget=0;points=[[0,0.5],[1,0.5]];portConstraint=eastwest;strokeWidth=2;fontSize=21;strokeColor=#000000;fontStyle=1" parent="51" vertex="1">
                    <mxGeometry y="60" width="140" height="30" as="geometry"/>
                </mxCell>
                <mxCell id="56" value="&lt;font style=&quot;font-size: 21px;&quot; color=&quot;#000000&quot;&gt;e2&lt;/font&gt;" style="shape=partialRectangle;html=1;whiteSpace=wrap;connectable=0;top=0;left=0;bottom=0;right=0;overflow=hidden;strokeWidth=2;fontSize=21;strokeColor=#000000;fontStyle=1" parent="55" vertex="1">
                    <mxGeometry width="31" height="30" as="geometry">
                        <mxRectangle width="31" height="30" as="alternateBounds"/>
                    </mxGeometry>
                </mxCell>
                <mxCell id="57" value="&lt;font style=&quot;font-size: 21px;&quot; color=&quot;#050505&quot;&gt;---&lt;/font&gt;" style="shape=partialRectangle;html=1;whiteSpace=wrap;connectable=0;top=0;left=0;bottom=0;right=0;align=left;spacingLeft=6;overflow=hidden;strokeWidth=2;fontSize=21;strokeColor=#000000;fontStyle=1" parent="55" vertex="1">
                    <mxGeometry x="31" width="109" height="30" as="geometry">
                        <mxRectangle width="109" height="30" as="alternateBounds"/>
                    </mxGeometry>
                </mxCell>
                <mxCell id="58" value="traces_10090" style="shape=table;startSize=30;container=1;collapsible=0;childLayout=tableLayout;fixedRows=1;rowLines=0;fontStyle=1;strokeWidth=2;fontSize=21;strokeColor=#000000;fontColor=#000000;" parent="1" vertex="1">
                    <mxGeometry x="480" y="1675" width="140" height="90" as="geometry"/>
                </mxCell>
                <mxCell id="59" value="" style="shape=tableRow;horizontal=0;startSize=0;swimlaneHead=0;swimlaneBody=0;top=0;left=0;bottom=0;right=0;collapsible=0;dropTarget=0;points=[[0,0.5],[1,0.5]];portConstraint=eastwest;strokeWidth=2;fontSize=21;strokeColor=#000000;fontStyle=1" parent="58" vertex="1">
                    <mxGeometry y="30" width="140" height="30" as="geometry"/>
                </mxCell>
                <mxCell id="60" value="&lt;font style=&quot;font-size: 21px;&quot; color=&quot;#000000&quot;&gt;e1&lt;/font&gt;" style="shape=partialRectangle;html=1;whiteSpace=wrap;connectable=0;top=0;left=0;bottom=0;right=0;overflow=hidden;pointerEvents=1;strokeWidth=2;fontSize=21;strokeColor=#000000;fontStyle=1" parent="59" vertex="1">
                    <mxGeometry width="31" height="30" as="geometry">
                        <mxRectangle width="31" height="30" as="alternateBounds"/>
                    </mxGeometry>
                </mxCell>
                <mxCell id="61" value="&lt;font style=&quot;font-size: 21px;&quot; color=&quot;#000000&quot;&gt;----&lt;/font&gt;" style="shape=partialRectangle;html=1;whiteSpace=wrap;connectable=0;top=0;left=0;bottom=0;right=0;align=left;spacingLeft=6;overflow=hidden;strokeWidth=2;fontSize=21;strokeColor=#000000;fontStyle=1" parent="59" vertex="1">
                    <mxGeometry x="31" width="109" height="30" as="geometry">
                        <mxRectangle width="109" height="30" as="alternateBounds"/>
                    </mxGeometry>
                </mxCell>
                <mxCell id="62" value="" style="shape=tableRow;horizontal=0;startSize=0;swimlaneHead=0;swimlaneBody=0;top=0;left=0;bottom=0;right=0;collapsible=0;dropTarget=0;points=[[0,0.5],[1,0.5]];portConstraint=eastwest;strokeWidth=2;fontSize=21;strokeColor=#000000;fontStyle=1" parent="58" vertex="1">
                    <mxGeometry y="60" width="140" height="30" as="geometry"/>
                </mxCell>
                <mxCell id="63" value="&lt;font style=&quot;font-size: 21px;&quot; color=&quot;#000000&quot;&gt;e2&lt;/font&gt;" style="shape=partialRectangle;html=1;whiteSpace=wrap;connectable=0;top=0;left=0;bottom=0;right=0;overflow=hidden;strokeWidth=2;fontSize=21;strokeColor=#000000;fontStyle=1" parent="62" vertex="1">
                    <mxGeometry width="31" height="30" as="geometry">
                        <mxRectangle width="31" height="30" as="alternateBounds"/>
                    </mxGeometry>
                </mxCell>
                <mxCell id="64" value="&lt;font style=&quot;font-size: 21px;&quot; color=&quot;#050505&quot;&gt;---&lt;/font&gt;" style="shape=partialRectangle;html=1;whiteSpace=wrap;connectable=0;top=0;left=0;bottom=0;right=0;align=left;spacingLeft=6;overflow=hidden;strokeWidth=2;fontSize=21;strokeColor=#000000;fontStyle=1" parent="62" vertex="1">
                    <mxGeometry x="31" width="109" height="30" as="geometry">
                        <mxRectangle width="109" height="30" as="alternateBounds"/>
                    </mxGeometry>
                </mxCell>
                <mxCell id="65" value="traces_40503" style="shape=table;startSize=30;container=1;collapsible=0;childLayout=tableLayout;fixedRows=1;rowLines=0;fontStyle=1;strokeWidth=2;fontSize=21;strokeColor=#000000;fontColor=#000000;" parent="1" vertex="1">
                    <mxGeometry x="660" y="1675" width="140" height="90" as="geometry"/>
                </mxCell>
                <mxCell id="66" value="" style="shape=tableRow;horizontal=0;startSize=0;swimlaneHead=0;swimlaneBody=0;top=0;left=0;bottom=0;right=0;collapsible=0;dropTarget=0;points=[[0,0.5],[1,0.5]];portConstraint=eastwest;strokeWidth=2;fontSize=21;strokeColor=#000000;fontStyle=1" parent="65" vertex="1">
                    <mxGeometry y="30" width="140" height="30" as="geometry"/>
                </mxCell>
                <mxCell id="67" value="&lt;font style=&quot;font-size: 21px;&quot; color=&quot;#050505&quot;&gt;e1&lt;/font&gt;" style="shape=partialRectangle;html=1;whiteSpace=wrap;connectable=0;top=0;left=0;bottom=0;right=0;overflow=hidden;pointerEvents=1;strokeWidth=2;fontSize=21;strokeColor=#000000;fontStyle=1" parent="66" vertex="1">
                    <mxGeometry width="31" height="30" as="geometry">
                        <mxRectangle width="31" height="30" as="alternateBounds"/>
                    </mxGeometry>
                </mxCell>
                <mxCell id="68" value="&lt;font style=&quot;font-size: 21px;&quot; color=&quot;#000000&quot;&gt;----&lt;/font&gt;" style="shape=partialRectangle;html=1;whiteSpace=wrap;connectable=0;top=0;left=0;bottom=0;right=0;align=left;spacingLeft=6;overflow=hidden;strokeWidth=2;fontSize=21;strokeColor=#000000;fontStyle=1" parent="66" vertex="1">
                    <mxGeometry x="31" width="109" height="30" as="geometry">
                        <mxRectangle width="109" height="30" as="alternateBounds"/>
                    </mxGeometry>
                </mxCell>
                <mxCell id="69" value="" style="shape=tableRow;horizontal=0;startSize=0;swimlaneHead=0;swimlaneBody=0;top=0;left=0;bottom=0;right=0;collapsible=0;dropTarget=0;points=[[0,0.5],[1,0.5]];portConstraint=eastwest;strokeWidth=2;fontSize=21;strokeColor=#000000;fontStyle=1" parent="65" vertex="1">
                    <mxGeometry y="60" width="140" height="30" as="geometry"/>
                </mxCell>
                <mxCell id="70" value="&lt;font style=&quot;font-size: 21px;&quot; color=&quot;#030303&quot;&gt;e2&lt;/font&gt;" style="shape=partialRectangle;html=1;whiteSpace=wrap;connectable=0;top=0;left=0;bottom=0;right=0;overflow=hidden;strokeWidth=2;fontSize=21;strokeColor=#000000;fontStyle=1" parent="69" vertex="1">
                    <mxGeometry width="31" height="30" as="geometry">
                        <mxRectangle width="31" height="30" as="alternateBounds"/>
                    </mxGeometry>
                </mxCell>
                <mxCell id="71" value="&lt;font style=&quot;font-size: 21px;&quot; color=&quot;#000000&quot;&gt;---&lt;/font&gt;" style="shape=partialRectangle;html=1;whiteSpace=wrap;connectable=0;top=0;left=0;bottom=0;right=0;align=left;spacingLeft=6;overflow=hidden;strokeWidth=2;fontSize=21;strokeColor=#000000;fontStyle=1" parent="69" vertex="1">
                    <mxGeometry x="31" width="109" height="30" as="geometry">
                        <mxRectangle width="109" height="30" as="alternateBounds"/>
                    </mxGeometry>
                </mxCell>
                <mxCell id="75" value="" style="shape=parallelogram;perimeter=parallelogramPerimeter;whiteSpace=wrap;html=1;fixedSize=1;strokeWidth=2;fontSize=21;strokeColor=#000000;fontStyle=1" parent="1" vertex="1">
                    <mxGeometry x="120" y="1570" width="640" height="50" as="geometry"/>
                </mxCell>
                <mxCell id="76" value="&lt;span style=&quot;font-size: 21px;&quot;&gt;&lt;font color=&quot;#000000&quot; style=&quot;font-size: 21px;&quot;&gt;Clinical event-enhanced DHKG modeling Stage&lt;/font&gt;&lt;/span&gt;" style="text;html=1;align=center;verticalAlign=middle;whiteSpace=wrap;rounded=0;strokeWidth=2;strokeColor=none;fontStyle=1;fontSize=21;" parent="1" vertex="1">
                    <mxGeometry x="170" y="1580" width="510" height="30" as="geometry"/>
                </mxCell>
                <mxCell id="77" value="" style="edgeStyle=none;html=1;fontSize=21;fontColor=#B8B6B6;strokeColor=#000000;strokeWidth=2;fontStyle=1" parent="1" edge="1">
                    <mxGeometry relative="1" as="geometry">
                        <mxPoint x="439.5" y="1660" as="sourcePoint"/>
                        <mxPoint x="439.5" y="1620" as="targetPoint"/>
                    </mxGeometry>
                </mxCell>
                <mxCell id="82" value="" style="edgeStyle=none;html=1;fontSize=21;fontColor=#B8B6B6;strokeColor=#000000;strokeWidth=2;fontStyle=1" parent="1" edge="1">
                    <mxGeometry relative="1" as="geometry">
                        <mxPoint x="440" y="1570" as="sourcePoint"/>
                        <mxPoint x="439.5" y="1540" as="targetPoint"/>
                    </mxGeometry>
                </mxCell>
                <mxCell id="83" value="" style="shape=parallelogram;perimeter=parallelogramPerimeter;whiteSpace=wrap;html=1;fixedSize=1;strokeWidth=2;fontSize=21;strokeColor=#000000;fontStyle=1" parent="1" vertex="1">
                    <mxGeometry x="115" y="1360" width="640" height="40" as="geometry"/>
                </mxCell>
                <mxCell id="84" value="&lt;span style=&quot;font-size: 21px;&quot;&gt;&lt;font color=&quot;#030303&quot; style=&quot;font-size: 21px;&quot;&gt;Optimization Stage&lt;/font&gt;&lt;/span&gt;" style="text;html=1;align=center;verticalAlign=middle;whiteSpace=wrap;rounded=0;strokeWidth=2;strokeColor=none;fontStyle=1;fontSize=21;" parent="1" vertex="1">
                    <mxGeometry x="350" y="1365" width="200" height="30" as="geometry"/>
                </mxCell>
                <mxCell id="85" value="" style="edgeStyle=none;html=1;fontSize=21;fontColor=#B8B6B6;strokeColor=#000000;strokeWidth=2;fontStyle=1" parent="1" edge="1">
                    <mxGeometry relative="1" as="geometry">
                        <mxPoint x="439.5" y="1440" as="sourcePoint"/>
                        <mxPoint x="439.5" y="1400" as="targetPoint"/>
                    </mxGeometry>
                </mxCell>
                <mxCell id="86" value="" style="edgeStyle=none;html=1;fontSize=21;fontColor=#B8B6B6;strokeColor=#000000;strokeWidth=2;entryX=0.5;entryY=1;entryDx=0;entryDy=0;fontStyle=1" parent="1" edge="1">
                    <mxGeometry relative="1" as="geometry">
                        <mxPoint x="439.5" y="1360" as="sourcePoint"/>
                        <mxPoint x="440" y="1310" as="targetPoint"/>
                    </mxGeometry>
                </mxCell>
                <mxCell id="94" value="" style="shape=image;verticalLabelPosition=bottom;labelBackgroundColor=default;verticalAlign=top;aspect=fixed;imageAspect=0;image=data:image/svg+xml,PHN2ZyB4bWxucz0iaHR0cDovL3d3dy53My5vcmcvMjAwMC9zdmciIHZpZXdCb3g9IjAgMCAyNCAyNCIgaGVpZ2h0PSI4MDBweCIgd2lkdGg9IjgwMHB4Ij48cGF0aCBkPSJNMy41IDEyYy4wMTUgMCAuMDI4LS4wMDQuMDQyLS4wMDRsLjk0IDQuMjI2YTIuNDk3IDIuNDk3IDAgMSAwIDMuMzQ1IDMuMTczbDcuMTgyIDEuMTk3YTIuNDkxIDIuNDkxIDAgMSAwIDMuNTI3LTIuMzZsMS45MDItOC4yMzhjLjAyMSAwIC4wNC4wMDYuMDYyLjAwNmEyLjUgMi41IDAgMSAwLTIuMDMtMy45NWwtNC41My0yLjAxMmEyLjUgMi41IDAgMSAwLTQuNjkyLjUyOEw1LjE1MSA3LjYzN0EyLjQ5NSAyLjQ5NSAwIDEgMCAzLjUgMTJ6bTEuMDE4LS4yMjJhMi41MSAyLjUxIDAgMCAwIDEuMjYtMS4yNmw0LjIyNi45NGMwIC4wMTQtLjAwNC4wMjctLjAwNC4wNDJhMi40ODQgMi40ODQgMCAwIDAgLjQxNiAxLjM3N2wtMy41NCAzLjU0QTIuNDgzIDIuNDgzIDAgMCAwIDUuNSAxNmMtLjAxNCAwLS4wMjguMDA0LS4wNDIuMDA0em03LjE4NC0yLjYzNWEyLjUwMSAyLjUwMSAwIDAgMC0xLjQ4IDEuMzM5bC00LjIyNi0uOTRjMC0uMDE0LjAwNC0uMDI3LjAwNC0uMDQyYTIuNDcyIDIuNDcyIDAgMCAwLS4yNDctMS4wNjVsNC4wOTYtMy4wNzJhMi40NzcgMi40NzcgMCAwIDAgMS40NTcuNjE3ek0xNCAxMXYxYTEgMSAwIDAgMS0xIDFoLTFhMSAxIDAgMCAxLTEtMXYtMWExIDEgMCAwIDEgMS0xaDFhMSAxIDAgMCAxIDEgMXptMS4xNzMgOC42MDVMNy45OSAxOC40MDhhMi40ODMgMi40ODMgMCAwIDAtLjQwNy0xLjI4NWwzLjU0LTMuNTRhMi40MDUgMi40MDUgMCAwIDAgMi4xMjMuMjlsMi42MzIgNC43NGEyLjQ5NCAyLjQ5NCAwIDAgMC0uNzA2Ljk5MnpNNiAyMEg1YTEgMSAwIDAgMS0xLTF2LTFhMSAxIDAgMCAxIDEtMWgxYTEgMSAwIDAgMSAxIDF2MWExIDEgMCAwIDEtMSAxem0xMyAwdjFhMSAxIDAgMCAxLTEgMWgtMWExIDEgMCAwIDEtMS0xdi0xYTEgMSAwIDAgMSAxLTFoMWExIDEgMCAwIDEgMSAxem0tMS40MzgtMS45OTRjLS4wMiAwLS4wNC0uMDA2LS4wNjItLjAwNmEyLjQ2NiAyLjQ2NiAwIDAgMC0uNzQ3LjEyN2wtMi42MzItNC43NGEyLjQxMSAyLjQxMSAwIDAgMCAuNzg0LTIuNTNsMy42MzgtMS44MmEyLjUwMiAyLjUwMiAwIDAgMCAuOTIuNzMxek0yMCA2aDFhMSAxIDAgMCAxIDEgMXYxYTEgMSAwIDAgMS0xIDFoLTFhMSAxIDAgMCAxLTEtMVY3YTEgMSAwIDAgMSAxLTF6bS0xLjkzOS45NjNhMi4zMDEgMi4zMDEgMCAwIDAgLjAzNCAxLjE4bC0zLjYzOCAxLjgyYTIuNDgzIDIuNDgzIDAgMCAwLTEuNzYzLS45NDNsLS4zOTYtMy4xNjNhMi40OTkgMi40OTkgMCAwIDAgMS4yMzEtLjkwOHpNMTAgNFYzYTEgMSAwIDAgMSAxLTFoMWExIDEgMCAwIDEgMSAxdjFhMSAxIDAgMCAxLTEgMWgtMWExIDEgMCAwIDEtMS0xek0yIDlhMSAxIDAgMCAxIDEtMWgxYTEgMSAwIDAgMSAxIDF2MWExIDEgMCAwIDEtMSAxSDNhMSAxIDAgMCAxLTEtMXoiLz48cGF0aCBkPSJNMCAwaDI0djI0SDB6IiBmaWxsPSJub25lIi8+PC9zdmc+;strokeColor=#000000;strokeWidth=2;fontStyle=1;fontSize=21;" parent="1" vertex="1">
                    <mxGeometry x="405" y="1445" width="90" height="90" as="geometry"/>
                </mxCell>
                <mxCell id="105" value="&lt;span style=&quot;font-size: 21px;&quot;&gt;&lt;font color=&quot;#000000&quot; style=&quot;font-size: 21px;&quot;&gt;Vizualization Of the graph&lt;/font&gt;&lt;/span&gt;" style="text;html=1;align=center;verticalAlign=middle;whiteSpace=wrap;rounded=0;strokeWidth=2;strokeColor=none;fontStyle=1;fontSize=21;" parent="1" vertex="1">
                    <mxGeometry x="305" y="1110" width="280" height="30" as="geometry"/>
                </mxCell>
                <mxCell id="107" value="" style="edgeStyle=none;html=1;fontSize=21;fontColor=#B8B6B6;strokeColor=#000000;strokeWidth=2;fontStyle=1" parent="1" edge="1">
                    <mxGeometry relative="1" as="geometry">
                        <mxPoint x="439.5" y="1215" as="sourcePoint"/>
                        <mxPoint x="440" y="1155" as="targetPoint"/>
                    </mxGeometry>
                </mxCell>
                <mxCell id="114" value="" style="shape=image;verticalLabelPosition=bottom;labelBackgroundColor=default;verticalAlign=top;aspect=fixed;imageAspect=0;image=data:image/svg+xml,PHN2ZyB4bWxucz0iaHR0cDovL3d3dy53My5vcmcvMjAwMC9zdmciIHZpZXdCb3g9IjAgMCAyNCAyNCIgaGVpZ2h0PSI4MDBweCIgd2lkdGg9IjgwMHB4Ij48cGF0aCBkPSJNMy41IDEyYy4wMTUgMCAuMDI4LS4wMDQuMDQyLS4wMDRsLjk0IDQuMjI2YTIuNDk3IDIuNDk3IDAgMSAwIDMuMzQ1IDMuMTczbDcuMTgyIDEuMTk3YTIuNDkxIDIuNDkxIDAgMSAwIDMuNTI3LTIuMzZsMS45MDItOC4yMzhjLjAyMSAwIC4wNC4wMDYuMDYyLjAwNmEyLjUgMi41IDAgMSAwLTIuMDMtMy45NWwtNC41My0yLjAxMmEyLjUgMi41IDAgMSAwLTQuNjkyLjUyOEw1LjE1MSA3LjYzN0EyLjQ5NSAyLjQ5NSAwIDEgMCAzLjUgMTJ6bTEuMDE4LS4yMjJhMi41MSAyLjUxIDAgMCAwIDEuMjYtMS4yNmw0LjIyNi45NGMwIC4wMTQtLjAwNC4wMjctLjAwNC4wNDJhMi40ODQgMi40ODQgMCAwIDAgLjQxNiAxLjM3N2wtMy41NCAzLjU0QTIuNDgzIDIuNDgzIDAgMCAwIDUuNSAxNmMtLjAxNCAwLS4wMjguMDA0LS4wNDIuMDA0em03LjE4NC0yLjYzNWEyLjUwMSAyLjUwMSAwIDAgMC0xLjQ4IDEuMzM5bC00LjIyNi0uOTRjMC0uMDE0LjAwNC0uMDI3LjAwNC0uMDQyYTIuNDcyIDIuNDcyIDAgMCAwLS4yNDctMS4wNjVsNC4wOTYtMy4wNzJhMi40NzcgMi40NzcgMCAwIDAgMS40NTcuNjE3ek0xNCAxMXYxYTEgMSAwIDAgMS0xIDFoLTFhMSAxIDAgMCAxLTEtMXYtMWExIDEgMCAwIDEgMS0xaDFhMSAxIDAgMCAxIDEgMXptMS4xNzMgOC42MDVMNy45OSAxOC40MDhhMi40ODMgMi40ODMgMCAwIDAtLjQwNy0xLjI4NWwzLjU0LTMuNTRhMi40MDUgMi40MDUgMCAwIDAgMi4xMjMuMjlsMi42MzIgNC43NGEyLjQ5NCAyLjQ5NCAwIDAgMC0uNzA2Ljk5MnpNNiAyMEg1YTEgMSAwIDAgMS0xLTF2LTFhMSAxIDAgMCAxIDEtMWgxYTEgMSAwIDAgMSAxIDF2MWExIDEgMCAwIDEtMSAxem0xMyAwdjFhMSAxIDAgMCAxLTEgMWgtMWExIDEgMCAwIDEtMS0xdi0xYTEgMSAwIDAgMSAxLTFoMWExIDEgMCAwIDEgMSAxem0tMS40MzgtMS45OTRjLS4wMiAwLS4wNC0uMDA2LS4wNjItLjAwNmEyLjQ2NiAyLjQ2NiAwIDAgMC0uNzQ3LjEyN2wtMi42MzItNC43NGEyLjQxMSAyLjQxMSAwIDAgMCAuNzg0LTIuNTNsMy42MzgtMS44MmEyLjUwMiAyLjUwMiAwIDAgMCAuOTIuNzMxek0yMCA2aDFhMSAxIDAgMCAxIDEgMXYxYTEgMSAwIDAgMS0xIDFoLTFhMSAxIDAgMCAxLTEtMVY3YTEgMSAwIDAgMSAxLTF6bS0xLjkzOS45NjNhMi4zMDEgMi4zMDEgMCAwIDAgLjAzNCAxLjE4bC0zLjYzOCAxLjgyYTIuNDgzIDIuNDgzIDAgMCAwLTEuNzYzLS45NDNsLS4zOTYtMy4xNjNhMi40OTkgMi40OTkgMCAwIDAgMS4yMzEtLjkwOHpNMTAgNFYzYTEgMSAwIDAgMSAxLTFoMWExIDEgMCAwIDEgMSAxdjFhMSAxIDAgMCAxLTEgMWgtMWExIDEgMCAwIDEtMS0xek0yIDlhMSAxIDAgMCAxIDEtMWgxYTEgMSAwIDAgMSAxIDF2MWExIDEgMCAwIDEtMSAxSDNhMSAxIDAgMCAxLTEtMXoiLz48cGF0aCBkPSJNMCAwaDI0djI0SDB6IiBmaWxsPSJub25lIi8+PC9zdmc+;strokeColor=#000000;strokeWidth=2;fontStyle=1;fontSize=21;" parent="1" vertex="1">
                    <mxGeometry x="395" y="1215" width="90" height="90" as="geometry"/>
                </mxCell>
                <mxCell id="116" value="" style="shape=cylinder3;whiteSpace=wrap;html=1;boundedLbl=1;backgroundOutline=1;size=15;strokeWidth=2;strokeColor=#000000;fontStyle=1;fontSize=21;" parent="1" vertex="1">
                    <mxGeometry x="650" y="1915" width="85" height="105" as="geometry"/>
                </mxCell>
                <mxCell id="117" value="" style="shape=cylinder3;whiteSpace=wrap;html=1;boundedLbl=1;backgroundOutline=1;size=15;strokeWidth=2;strokeColor=#000000;fontStyle=1;fontSize=21;" parent="1" vertex="1">
                    <mxGeometry x="440" y="1915" width="85" height="105" as="geometry"/>
                </mxCell>
                <mxCell id="118" value="" style="shape=cylinder3;whiteSpace=wrap;html=1;boundedLbl=1;backgroundOutline=1;size=15;strokeWidth=2;strokeColor=#000000;fontStyle=1;fontSize=21;" parent="1" vertex="1">
                    <mxGeometry x="265" y="1917.5" width="85" height="105" as="geometry"/>
                </mxCell>
                <mxCell id="119" value="" style="shape=cylinder3;whiteSpace=wrap;html=1;boundedLbl=1;backgroundOutline=1;size=15;strokeWidth=2;strokeColor=#000000;fontStyle=1;fontSize=21;" parent="1" vertex="1">
                    <mxGeometry x="85" y="1915" width="85" height="105" as="geometry"/>
                </mxCell>
                <mxCell id="124" value="" style="edgeStyle=none;html=1;strokeColor=#000000;strokeWidth=2;entryX=0.5;entryY=1;entryDx=0;entryDy=0;fontSize=21;" parent="1" target="37" edge="1">
                    <mxGeometry relative="1" as="geometry">
                        <mxPoint x="440" y="1900" as="sourcePoint"/>
                        <mxPoint x="440" y="1865" as="targetPoint"/>
                    </mxGeometry>
                </mxCell>
                <mxCell id="125" value="&lt;span style=&quot;font-size: 21px;&quot;&gt;&lt;font color=&quot;#000000&quot; style=&quot;font-size: 21px;&quot;&gt;Log-based Clinical pathways&amp;nbsp; mining stage&lt;/font&gt;&lt;/span&gt;" style="text;html=1;align=center;verticalAlign=middle;whiteSpace=wrap;rounded=0;strokeWidth=2;strokeColor=none;fontStyle=1;fontSize=21;" parent="1" vertex="1">
                    <mxGeometry x="217.5" y="1825" width="445" height="30" as="geometry"/>
                </mxCell>
            </root>
        </mxGraphModel>
    </diagram>
</mxfile>